<svg width="228" height="162" viewBox="0 0 228 162" fill="none" xmlns="http://www.w3.org/2000/svg">
<path d="M6.5 52.5V6H49" stroke="white" stroke-width="12"/>
<path d="M221.5 109L221.5 155.5L179 155.5" stroke="white" stroke-width="12"/>
<path fill-rule="evenodd" clip-rule="evenodd" d="M195.785 80.5C180.485 49.2713 149.144 29.5333 114 29.5333C78.8564 29.5333 47.5145 49.2713 32.2145 80.5C47.5145 111.729 78.7636 131.467 114 131.467C149.236 131.467 180.485 111.729 195.785 80.5ZM12 80.5C28.0418 39.8193 67.6364 11 114 11C160.364 11 199.958 39.8193 216 80.5C199.958 121.181 160.364 150 114 150C67.6364 150 28.0418 121.181 12 80.5ZM137.182 80.5C137.182 79.663 137.137 78.8364 137.051 78.0223L154.419 70.1276C155.273 73.4453 155.727 76.9209 155.727 80.5C155.727 83.5731 155.392 86.57 154.757 89.4562L136.734 85.0506C137.028 83.579 137.182 82.0574 137.182 80.5ZM133.79 92.5664C129.715 99.2221 122.374 103.667 114 103.667C102.415 103.667 92.8055 95.1595 91.0905 84.0592L72.307 78.7998C72.2842 79.3638 72.2727 79.9306 72.2727 80.5C72.2727 103.481 91.0036 122.2 114 122.2C131.103 122.2 145.846 111.847 152.28 97.0862L133.79 92.5664ZM149.772 59.0585L132.704 66.8165C128.484 61.0678 121.676 57.3333 114 57.3333C102.812 57.3333 93.4666 65.2673 91.2944 75.8086L73.4135 70.8019C77.8029 52.4768 94.3432 38.8 114 38.8C129.158 38.8 142.463 46.9328 149.772 59.0585Z" fill="white"/>
</svg>
